HIERARCHY
ROOT joint_Root
{
	OFFSET 0.0 0.0 0.0
	CHANNELS 6 Xposition Yposition Zposition Zrotation Xrotation Yrotation 
	JOINT Hips
	{
		OFFSET -0.726466 93.3139 -2.00062
		CHANNELS 6 Xposition Yposition Zposition Zrotation Xrotation Yrotation 
		JOINT Spine
		{
			OFFSET 15.7357 0.0 0.0
			CHANNELS 6 Xposition Yposition Zposition Zrotation Xrotation Yrotation 
			JOINT Chest
			{
				OFFSET 8.98455 -0.406207 0.0
				CHANNELS 6 Xposition Yposition Zposition Zrotation Xrotation Yrotation 
				JOINT Neck
				{
					OFFSET 16.3773 0.0 0.0
					CHANNELS 6 Xposition Yposition Zposition Zrotation Xrotation Yrotation 
					JOINT Head
					{
						OFFSET 6.45672 0.0 0.0
						CHANNELS 6 Xposition Yposition Zposition Zrotation Xrotation Yrotation 
						End Site
						{
							OFFSET 0.0 0.0 0.0
						}
					}
				}
				JOINT Shoulder_L
				{
					OFFSET 12.9942 -0.242716 4.98039
					CHANNELS 6 Xposition Yposition Zposition Zrotation Xrotation Yrotation 
					JOINT UpperArm_L
					{
						OFFSET 5.34809 0.0 0.0
						CHANNELS 6 Xposition Yposition Zposition Zrotation Xrotation Yrotation 
						JOINT LowerArm_L
						{
							OFFSET 24.3286 1.87007e-05 0.0
							CHANNELS 6 Xposition Yposition Zposition Zrotation Xrotation Yrotation 
							JOINT Hand_L
							{
								OFFSET 22.2916 0.0 0.0
								CHANNELS 6 Xposition Yposition Zposition Zrotation Xrotation Yrotation 
								End Site
								{
									OFFSET 0.0 0.0 0.0
								}
							}
						}
					}
				}
				JOINT Shoulder_R
				{
					OFFSET 12.9945 -0.242716 -4.98039
					CHANNELS 6 Xposition Yposition Zposition Zrotation Xrotation Yrotation 
					JOINT UpperArm_R
					{
						OFFSET -5.34813 0.0 0.0
						CHANNELS 6 Xposition Yposition Zposition Zrotation Xrotation Yrotation 
						JOINT LowerArm_R
						{
							OFFSET -24.3289 0.000322201 0.0
							CHANNELS 6 Xposition Yposition Zposition Zrotation Xrotation Yrotation 
							JOINT Hand_R
							{
								OFFSET -22.2915 -0.000108084 0.0
								CHANNELS 6 Xposition Yposition Zposition Zrotation Xrotation Yrotation 
								End Site
								{
									OFFSET 0.0 0.0 0.0
								}
							}
						}
					}
				}
			}
		}
		JOINT UpperLeg_L
		{
			OFFSET -2.19248 -6.46944 0.0
			CHANNELS 6 Xposition Yposition Zposition Zrotation Xrotation Yrotation 
			JOINT LowerLeg_L
			{
				OFFSET 39.0811 0.0 -1.23785e-05
				CHANNELS 6 Xposition Yposition Zposition Zrotation Xrotation Yrotation 
				JOINT Foot_L
				{
					OFFSET 40.9854 0.0 -1.26872e-05
					CHANNELS 6 Xposition Yposition Zposition Zrotation Xrotation Yrotation 
					JOINT Toes_L
					{
						OFFSET 11.7543 0.0 0.0
						CHANNELS 6 Xposition Yposition Zposition Zrotation Xrotation Yrotation 
						End Site
						{
							OFFSET 0.0 0.0 0.0
						}
					}
				}
			}
		}
		JOINT UpperLeg_R
		{
			OFFSET -2.19251 6.46944 0.0
			CHANNELS 6 Xposition Yposition Zposition Zrotation Xrotation Yrotation 
			JOINT LowerLeg_R
			{
				OFFSET -39.0811 -0.00228153 -0.0401928
				CHANNELS 6 Xposition Yposition Zposition Zrotation Xrotation Yrotation 
				JOINT Foot_R
				{
					OFFSET -40.9854 0.0 0.0
					CHANNELS 6 Xposition Yposition Zposition Zrotation Xrotation Yrotation 
					JOINT Toes_R
					{
						OFFSET -11.7543 0.0 0.0
						CHANNELS 6 Xposition Yposition Zposition Zrotation Xrotation Yrotation 
						End Site
						{
							OFFSET 0.0 0.0 0.0
						}
					}
				}
			}
		}
	}
}
MOTION
Frames:	9
Frame Time:	0.0333333
0.000000 0.000000 0.000000 0.000000 0.000000 -0.000000 -1.186410 91.783400 1.971050 87.685700 -2.454180 2.470880 15.735700 0.000005 -0.000001 74.397800 86.345000 -73.273600 8.984550 -0.406207 -0.000000 -0.704177 -2.048750 2.234780 16.377300 -0.000001 -0.000001 0.788364 -1.455380 0.370259 6.456720 -0.000001 -0.000000 0.758514 -0.893977 -0.973173 12.994200 -0.242716 4.980390 -90.284500 0.822686 -70.926500 5.348090 -0.000007 -0.000001 -68.777200 35.048300 -10.668500 24.328600 0.000019 0.000005 4.172880 7.319760 -29.797300 22.291600 -0.000001 0.000005 2.585950 5.602110 -11.468900 12.994500 -0.242716 -4.980390 88.084900 5.186480 -69.701000 -5.348130 -0.000001 -0.000004 -59.961100 35.382000 -10.182600 -24.328900 0.000322 -0.000009 2.008370 3.015630 -33.701000 -22.291500 -0.000108 -0.000004 3.243260 5.601960 -11.460000 -2.192480 -6.469440 -0.000000 -168.123000 -18.478600 -1.186600 39.081100 -0.000007 -0.000012 -0.196838 0.494554 21.703400 40.985400 -0.000006 -0.000013 -8.181990 -2.501290 -65.305900 11.754300 -0.000000 0.000003 -0.000138 -0.001350 -16.629000 -2.192510 6.469440 -0.000001 174.260000 21.392400 -179.851000 -39.081100 -0.002282 -0.040193 -0.027460 0.084902 19.928400 -40.985400 0.000008 0.000006 -3.331740 1.112920 -65.163500 -11.754300 -0.000006 -0.000006 -0.002812 -0.038455 -18.137000
0.000000 0.000000 0.000000 0.000000 0.000000 -0.000000 -1.202430 91.792300 1.894630 87.650200 -2.641030 2.521810 15.735700 0.000005 -0.000001 74.064300 86.251100 -72.838300 8.984550 -0.406207 -0.000000 -0.532059 -2.146880 2.440920 16.377300 -0.000001 -0.000001 0.856953 -1.429680 0.349802 6.456720 -0.000001 -0.000000 0.664721 -0.790974 -1.028810 12.994200 -0.242716 4.980390 -90.334900 0.965280 -70.867900 5.348090 -0.000007 -0.000001 -68.099300 35.646200 -11.931300 24.328600 0.000019 0.000005 4.714630 8.056950 -30.473100 22.291600 -0.000001 0.000005 2.536670 5.603430 -11.549600 12.994500 -0.242716 -4.980390 88.142600 5.018880 -69.660900 -5.348130 -0.000001 -0.000004 -59.000800 38.243600 -10.178700 -24.328900 0.000322 -0.000009 2.204920 3.043230 -35.963900 -22.291500 -0.000108 -0.000004 3.137970 5.606000 -11.707200 -2.192480 -6.469440 -0.000000 -168.064000 -18.592400 -1.145230 39.081100 -0.000007 -0.000012 -0.196960 0.494766 21.707200 40.985400 -0.000006 -0.000013 -8.194360 -2.589640 -65.269800 11.754300 -0.000000 0.000003 -0.000152 -0.001469 -16.633400 -2.192510 6.469440 -0.000001 174.326000 21.226200 -179.882000 -39.081100 -0.002282 -0.040193 -0.025568 0.079667 19.932300 -40.985400 0.000008 0.000006 -3.234120 1.152910 -65.116000 -11.754300 -0.000006 -0.000006 -0.003017 -0.040796 -18.232200
0.000000 0.000000 0.000000 0.000000 0.000000 -0.000000 -1.235710 91.795100 1.799670 87.684600 -2.770460 2.544970 15.735700 0.000005 -0.000001 74.026000 86.173300 -72.716900 8.984550 -0.406207 -0.000000 -0.381358 -2.198820 2.609640 16.377300 -0.000001 -0.000001 0.884851 -1.433670 0.357810 6.456720 -0.000001 -0.000000 0.701321 -0.763491 -1.120630 12.994200 -0.242716 4.980390 -90.396300 1.144300 -70.898800 5.348090 -0.000007 -0.000001 -66.667200 36.090300 -13.773800 24.328600 0.000019 0.000005 4.999980 8.231270 -31.427800 22.291600 -0.000001 0.000005 2.555300 5.606000 -11.707500 12.994500 -0.242716 -4.980390 88.240400 4.733990 -69.583100 -5.348130 -0.000001 -0.000004 -57.942000 41.248200 -9.901350 -24.328900 0.000322 -0.000009 2.806670 3.451550 -39.164600 -22.291500 -0.000108 -0.000004 2.951930 5.608680 -11.875400 -2.192480 -6.469440 -0.000000 -168.074000 -18.702400 -1.153180 39.081100 -0.000007 -0.000012 -0.196021 0.492618 21.698700 40.985400 -0.000006 -0.000013 -8.195750 -2.596760 -65.203900 11.754300 -0.000000 0.000003 -0.000153 -0.001473 -16.633500 -2.192510 6.469440 -0.000001 174.316000 21.094200 -179.969000 -39.081100 -0.002282 -0.040193 -0.032560 0.098645 19.988600 -40.985400 0.000008 0.000006 -3.352810 1.186730 -65.081700 -11.754300 -0.000006 -0.000006 -0.002953 -0.040067 -18.202600
0.000000 0.000000 0.000000 0.000000 0.000000 -0.000000 -1.280900 91.806600 1.694970 87.682100 -2.764560 2.570460 15.735700 0.000005 -0.000001 73.793100 86.080200 -72.400700 8.984550 -0.406207 -0.000000 -0.208338 -2.284440 2.779320 16.377300 -0.000001 -0.000001 0.874404 -1.459660 0.350571 6.456720 -0.000001 -0.000000 0.763927 -0.699413 -1.124710 12.994200 -0.242716 4.980390 -90.449600 1.298470 -70.899700 5.348090 -0.000007 -0.000001 -64.303600 36.062100 -16.457800 24.328600 0.000019 0.000005 5.706610 8.955940 -32.696200 22.291600 -0.000001 0.000005 2.786200 5.613000 -12.151200 12.994500 -0.242716 -4.980390 88.370500 4.357220 -69.472600 -5.348130 -0.000001 -0.000004 -56.886300 44.115100 -9.312870 -24.328900 0.000322 -0.000009 3.948370 4.220510 -43.168000 -22.291500 -0.000108 -0.000004 2.706990 5.617910 -12.478400 -2.192480 -6.469440 -0.000000 -168.045000 -18.687300 -1.162790 39.081100 -0.000007 -0.000012 -0.194218 0.489552 21.639800 40.985400 -0.000006 -0.000013 -8.209130 -2.601230 -65.104500 11.754300 -0.000000 0.000003 -0.000126 -0.001251 -16.625300 -2.192510 6.469440 -0.000001 174.364000 21.112000 179.985000 -39.081100 -0.002282 -0.040193 -0.035214 0.106036 19.971800 -40.985400 0.000008 0.000006 -3.494980 1.171010 -65.001400 -11.754300 -0.000006 -0.000006 -0.002814 -0.038477 -18.137900
0.000000 0.000000 0.000000 0.000000 0.000000 -0.000000 -1.366640 91.806500 1.591390 87.701600 -2.537180 2.664480 15.735700 0.000005 -0.000001 73.091400 85.974400 -71.615000 8.984550 -0.406207 -0.000000 -0.029093 -2.441500 2.950660 16.377300 -0.000001 -0.000001 0.956382 -1.492790 0.282979 6.456720 -0.000001 -0.000000 0.734205 -0.590659 -1.123950 12.994200 -0.242716 4.980390 -90.478100 1.383720 -70.938900 5.348090 -0.000007 -0.000001 -61.414800 35.154200 -19.578400 24.328600 0.000019 0.000005 6.298790 9.277610 -34.397400 22.291600 -0.000001 0.000005 3.528640 5.614990 -12.282600 12.994500 -0.242716 -4.980390 88.539700 3.861540 -69.267100 -5.348130 -0.000001 -0.000004 -55.738200 46.899400 -8.387740 -24.328900 0.000322 -0.000009 4.865450 4.386110 -48.067300 -22.291500 -0.000108 -0.000004 2.121740 5.627870 -13.183500 -2.192480 -6.469440 -0.000000 -168.012000 -18.585400 -1.236440 39.081100 -0.000007 -0.000012 -0.192943 0.485351 21.679700 40.985400 -0.000006 -0.000013 -8.199840 -2.470610 -64.988300 11.754300 -0.000000 0.000003 -0.000142 -0.001388 -16.630400 -2.192510 6.469440 -0.000001 174.360000 21.227300 -179.975000 -39.081100 -0.002282 -0.040193 -0.041064 0.121695 20.038100 -40.985400 0.000008 0.000006 -3.587850 1.103640 -65.015200 -11.754300 -0.000006 -0.000006 -0.003016 -0.040778 -18.231500
0.000000 0.000000 0.000000 0.000000 0.000000 -0.000000 -1.463930 91.823000 1.508990 87.725000 -2.245530 2.703570 15.735700 0.000005 -0.000001 72.477000 85.886900 -70.920500 8.984550 -0.406207 -0.000000 0.116169 -2.580060 3.114050 16.377300 -0.000001 -0.000001 1.038270 -1.545710 0.179609 6.456720 -0.000001 -0.000000 0.710733 -0.461200 -1.062130 12.994200 -0.242716 4.980390 -90.436700 1.273300 -71.070000 5.348090 -0.000007 -0.000001 -58.444800 33.143400 -23.028200 24.328600 0.000019 0.000005 6.254030 8.645770 -36.093000 22.291600 -0.000001 0.000005 4.196760 5.615920 -12.343900 12.994500 -0.242716 -4.980390 88.707400 3.371080 -69.006200 -5.348130 -0.000001 -0.000004 -54.595500 49.114600 -7.161090 -24.328900 0.000322 -0.000009 5.740760 4.274090 -53.451400 -22.291500 -0.000108 -0.000004 0.535507 5.631090 -13.420000 -2.192480 -6.469440 -0.000000 -167.971000 -18.545200 -1.266950 39.081100 -0.000007 -0.000012 -0.191053 0.483803 21.549300 40.985400 -0.000006 -0.000013 -8.188550 -2.257850 -64.787800 11.754300 -0.000000 0.000003 -0.000144 -0.001402 -16.630900 -2.192510 6.469440 -0.000001 174.409000 21.400800 -179.950000 -39.081100 -0.002282 -0.040193 -0.040246 0.119474 20.034900 -40.985400 0.000008 0.000006 -3.522710 0.968574 -65.014900 -11.754300 -0.000006 -0.000006 -0.003019 -0.040816 -18.233000
0.000000 0.000000 0.000000 0.000000 0.000000 -0.000000 -1.587670 91.828800 1.411890 87.722200 -1.810360 2.769200 15.735700 0.000005 -0.000001 71.182500 85.781200 -69.530500 8.984550 -0.406207 -0.000000 0.264404 -2.828900 3.308760 16.377300 -0.000001 -0.000001 1.120960 -1.603160 0.080306 6.456720 -0.000001 -0.000000 0.752552 -0.264715 -1.075200 12.994200 -0.242716 4.980390 -90.371200 1.094280 -71.261200 5.348090 -0.000007 -0.000001 -55.589300 29.983800 -26.436500 24.328600 0.000019 0.000005 6.449020 8.256820 -38.205500 22.291600 -0.000001 0.000005 4.553180 5.616340 -12.372600 12.994500 -0.242716 -4.980390 88.901900 2.832640 -68.800100 -5.348130 -0.000001 -0.000004 -53.461700 51.060200 -5.748410 -24.328900 0.000322 -0.000009 6.327350 3.840540 -58.869400 -22.291500 -0.000108 -0.000004 0.047162 5.633220 -13.581500 -2.192480 -6.469440 -0.000000 -167.895000 -18.351800 -1.374320 39.081100 -0.000007 -0.000012 -0.191874 0.486769 21.513600 40.985400 -0.000006 -0.000013 -8.195740 -2.042630 -64.604300 11.754300 -0.000000 0.000003 -0.000124 -0.001233 -16.624600 -2.192510 6.469440 -0.000001 174.460000 21.726000 -179.879000 -39.081100 -0.002282 -0.040193 -0.042315 0.124981 20.059700 -40.985400 0.000008 0.000006 -3.524370 0.860524 -65.042700 -11.754300 -0.000006 -0.000006 -0.002864 -0.039048 -18.161100
0.000000 0.000000 0.000000 0.000000 0.000000 -0.000000 -1.716580 91.834800 1.307420 87.745100 -1.456200 2.804040 15.735700 0.000005 -0.000001 70.229400 85.705800 -68.495700 8.984550 -0.406207 -0.000000 0.365393 -3.016160 3.475400 16.377300 -0.000001 -0.000001 1.198550 -1.651700 0.001264 6.456720 -0.000001 -0.000000 0.815229 -0.096706 -1.050120 12.994200 -0.242716 4.980390 -90.281600 0.839278 -71.452600 5.348090 -0.000007 -0.000001 -52.635400 26.217200 -29.882800 24.328600 0.000019 0.000005 6.459970 7.578100 -40.649500 22.291600 -0.000001 0.000005 5.266370 5.617910 -12.476300 12.994500 -0.242716 -4.980390 89.076300 2.342410 -68.472100 -5.348130 -0.000001 -0.000004 -51.965500 53.098500 -4.508290 -24.328900 0.000322 -0.000009 6.803840 3.318190 -64.125100 -22.291500 -0.000108 -0.000004 0.219857 5.640730 -14.187200 -2.192480 -6.469440 -0.000000 -167.830000 -18.271500 -1.457940 39.081100 -0.000007 -0.000012 -0.191298 0.487441 21.428000 40.985400 -0.000006 -0.000013 -8.191400 -1.730840 -64.401100 11.754300 -0.000000 0.000003 -0.000146 -0.001416 -16.631400 -2.192510 6.469440 -0.000001 174.505000 21.963100 -179.865000 -39.081100 -0.002282 -0.040193 -0.047367 0.138592 20.089300 -40.985400 0.000008 0.000006 -3.633700 0.744154 -65.058300 -11.754300 -0.000006 -0.000006 -0.002803 -0.038352 -18.132800
0.000000 0.000000 0.000000 0.000000 0.000000 -0.000000 -1.847460 91.839800 1.205980 87.718200 -1.163720 2.956710 15.735700 0.000005 -0.000001 69.764900 85.578500 -67.941500 8.984550 -0.406207 -0.000000 0.585772 -3.171740 3.661150 16.377300 -0.000001 -0.000001 1.245300 -1.708160 -0.044645 6.456720 -0.000001 -0.000000 0.785117 0.054201 -0.934360 12.994200 -0.242716 4.980390 -90.178100 0.534409 -71.573000 5.348090 -0.000007 -0.000001 -49.927100 21.671000 -33.415000 24.328600 0.000019 0.000005 6.260640 6.752630 -43.015600 22.291600 -0.000001 0.000005 6.107630 5.618590 -12.524000 12.994500 -0.242716 -4.980390 89.235500 1.914290 -68.226000 -5.348130 -0.000001 -0.000004 -50.579100 54.619400 -3.168390 -24.328900 0.000322 -0.000009 7.223850 2.754790 -69.238500 -22.291500 -0.000108 -0.000004 -0.537402 5.642860 -14.366000 -2.192480 -6.469440 -0.000000 -167.693000 -18.188400 -1.447560 39.081100 -0.000007 -0.000012 -0.188290 0.480235 21.409400 40.985400 -0.000006 -0.000013 -8.197900 -1.511080 -64.234500 11.754300 -0.000000 0.000003 -0.000146 -0.001421 -16.631600 -2.192510 6.469440 -0.000001 174.576000 22.127000 -179.753000 -39.081100 -0.002282 -0.040193 -0.047858 0.139495 20.147400 -40.985400 0.000008 0.000006 -3.534100 0.622870 -65.093400 -11.754300 -0.000006 -0.000006 -0.003118 -0.041931 -18.278400
